<svg id="_Layer_" data-name="&lt;Layer&gt;" xmlns="http://www.w3.org/2000/svg" viewBox="0 0 2760 1840"><defs><style>.cls-1{opacity:0.2;}.cls-2{fill:#abc7f2;}.cls-3{opacity:0.6;}.cls-4{fill:#cfe6ff;}.cls-5{fill:#b3d6f9;}.cls-6{fill:#bedeff;}.cls-7{fill:#a8ccfc;}.cls-8{fill:#51497a;}.cls-9{fill:#fff;}.cls-10{fill:#ff6576;}.cls-11{fill:#fb4b63;}.cls-12{fill:#fabba5;}.cls-13{fill:#ed938b;}.cls-14{fill:#f64660;}.cls-15{fill:#ff8091;}.cls-16{fill:#29274f;}.cls-17{fill:#75acf2;}.cls-18{fill:#4b83db;}.cls-19{fill:#6d2f3b;}.cls-20{fill:#e58f78;}.cls-21{fill:#752d4b;}.cls-22{fill:#ef9f8a;}.cls-23{fill:#ed4c62;}.cls-24{fill:#964d5f;}.cls-25{opacity:0.5;}.cls-26{fill:#badbf6;}.cls-27{fill:#d8ebff;}.cls-28{fill:#ff8a9a;}.cls-29{fill:#383463;}.cls-30{fill:#ffca87;}.cls-31{fill:#ffa468;}.cls-32{fill:#dc826f;}.cls-33{fill:#ffccbc;}.cls-34{fill:#eea490;}.cls-35{fill:#2d2b4e;}.cls-36{fill:#cf8171;}.cls-37{fill:#e33b58;}.cls-38{fill:#7a3a49;}.cls-39{fill:#fdbaa0;}.cls-40{fill:#ffc6b2;}.cls-41{fill:#f18e7b;}.cls-42{fill:#f07b7e;}</style></defs><title>29119404_Tiny people signing legal principles document [Converted]1</title><g class="cls-1"><path class="cls-2" d="M2766.44,1833.47H123.24c-160.5-61.11-200.27-627.83,223.31-658,423-30.12-155.34-690.46,449.33-777.19s842.49,1025.65,1408.44,796.2c155.65-63.09,299.56-55.61,405.73,73.71C2768.05,1460.74,2766.44,1833.47,2766.44,1833.47Z"/></g><g class="cls-3"><path class="cls-4" d="M2297,532.88q-.4,7.71-1.25,15.34c-.06.49-.11,1-.18,1.46a215.45,215.45,0,0,1-10.35,45.53c-.18.52-.36,1-.55,1.56-22.32,62.41-76.21,112.81-177.46,121.37-26.91,2.27-44.72,16.79-59.95,38-.32.44-.63.88-1,1.34-25.66,36.49-44.3,92-87.82,139.45l-1.4,1.53c-58.34,62.63-160.89,110.78-381.69,81.79l-2.23-.28s-.48-.92-1.36-2.68c-14.31-28.48-133.93-277-22.85-416.12,83.24-104.3,147.1-94.68,197.95-124,.43-.24.85-.48,1.27-.75,20.69-12.24,39.21-31.18,56-67.26,51.58-110.86,167.25-119.14,250.32-89.35l1.34.49a234,234,0,0,1,29,12.82c82.45,43.54,266.71-81.41,348.12,13.13S2301.48,443.93,2297,532.88Z"/><path class="cls-5" d="M2433.14,313.64q-9.79,1.64-19.53,3.56A962.55,962.55,0,0,0,2283.4,353c-.49.16-1,.34-1.47.51-25.42,8.89-50.52,18.69-75.22,29.19a1244.28,1244.28,0,0,0-249.46,141.77q-32,23.46-62.08,49l-.79.66q-17.91,15.21-35.13,31.11c-.39.35-.77.69-1.13,1a1146,1146,0,0,0-106.65,113q-5.73,6.94-11.37,13.94l-.88,1.11a1644.73,1644.73,0,0,0-117.29,165.87c-.26.4-.5.81-.76,1.22q-12.23,19.82-23.89,40c-7.4,12.79-14.75,25.76-21.93,38.91l-2.23-.28s-.48-.92-1.36-2.68c11.64-21.42,23.9-42.43,36.36-63.06q29.46-48.78,62.18-95.66c.3-.44.6-.86.91-1.3A1565.48,1565.48,0,0,1,1768.65,692q8.68-10.05,17.62-19.89l1-1.05a1129.91,1129.91,0,0,1,163.57-147.34l1.17-.88q16.41-12.13,33.25-23.7c2.51-1.72,5-3.44,7.56-5.14q.68-.48,1.38-.93a1249.91,1249.91,0,0,1,187.34-104.22c.44-.22.89-.42,1.35-.62q25-11.18,50.44-21.26c64.19-25.4,130.91-46.24,199.08-57.7C2435.22,308.74,2436,313.16,2433.14,313.64Z"/><path class="cls-5" d="M1603.85,508.22c-24.21,109.4,23.13,215.89,67.75,313.22a.69.69,0,0,0,1.25-.59c-44.54-97.14-91.79-203.31-67.63-312.5.19-.86-1.19-1-1.37-.13Z"/><path class="cls-5" d="M1737.35,733.43c73.94,35.43,161.09,39.73,241.55,33q34.21-2.86,68-9a.69.69,0,0,0-.23-1.35c-80.46,14.61-166.25,17.65-246.17-1.86a321.5,321.5,0,0,1-62.7-22.05c-.8-.38-1.28.91-.48,1.29Z"/><path class="cls-5" d="M2055.26,278.63c-42.44,63.69-61.41,141.58-62.54,217.51,0,.88,1.36,1,1.37.14,1.12-75.71,20-153.36,62.29-216.86.5-.74-.63-1.53-1.12-.79Z"/><path class="cls-5" d="M2007.64,269a495.21,495.21,0,0,0-52,128.58c-10.34,41.84-17.21,85.9-4.31,128,.26.84,1.62.61,1.36-.23-13.07-42.65-5.84-87.43,4.85-129.73a494.07,494.07,0,0,1,51.18-125.84c.44-.76-.68-1.56-1.12-.79Z"/><path class="cls-5" d="M1857,605.8c106,43.17,226.56,49.93,337.43,22.41a515.86,515.86,0,0,0,90.82-31.72.69.69,0,0,0-.59-1.25c-103.49,47.48-222.86,59.48-334.26,37.16a513.9,513.9,0,0,1-92.92-27.89c-.82-.33-1.3,1-.48,1.29Z"/><path class="cls-5" d="M1894.82,574.76c101.55,34.49,213.85,32.26,316.71,4.46a600.31,600.31,0,0,0,84.38-29.71c.81-.35.23-1.6-.59-1.24-97.25,42.62-207.22,60.17-312.68,45.71a470,470,0,0,1-87.34-20.51c-.84-.28-1.32,1-.48,1.29Z"/><path class="cls-5" d="M2205.89,292.76c-18.64,28.39-25.65,64.73-24.32,98.29,0,.88,1.39.64,1.35-.24-1.31-33.19,5.67-69.2,24.1-97.26.48-.74-.64-1.53-1.13-.79Z"/><path class="cls-5" d="M2280.05,351.76a192.29,192.29,0,0,0,136,51.75c.87,0,1-1.39.13-1.37a191,191,0,0,1-135.1-51.26c-.64-.6-1.7.28-1,.88Z"/><path class="cls-5" d="M1746.84,436.92c3.16,42.16,3.46,84.45,6,126.65,2.33,38.3,10.78,77.09,33.57,108.71.51.71,1.56-.18,1-.89-23.71-32.88-31.52-73.39-33.54-113.14-2-40.52-2.71-81.1-5.74-121.57-.07-.88-1.43-.64-1.36.24Z"/><path class="cls-5" d="M1957.72,896.8c-84.63,29.37-178.92,27.84-266.64,15.78q-36.12-5-71.74-13c-.86-.19-1,1.18-.13,1.37,87.38,19.56,180,28,268.93,14.2a401,401,0,0,0,70.17-17.14c.83-.29.24-1.53-.59-1.25Z"/></g><path class="cls-6" d="M2437.55,1472.39c-3.29,13.27-5.64,19.73-5.64,19.92-11,34.3-23.08,51.49-23.08,52.46-.33.57-.67,1.17-1,1.72h0c-41.46,70-118.12,118.17-242.12,104.9-33-3.55-57.79,9.8-81.1,31.84,0,0,0,0,0,0-41.74,40.49-73.44,97.15-132.86,143.68-287.11-.33-404.58-.48-495-.57-18.41-71.53-81.42-362.63,72.81-494.17,126.78-108.12,203.56-79.35,269.15-103.9h0c27.78-9.94,54.5-28.44,83.13-68,88-121.56,229.31-104.58,322.46-49.31.65,0,18.62,11.15,33.44,23.09,89.21,71.68,340.38-35.93,416.43,97S2463.75,1366.25,2437.55,1472.39Z"/><path class="cls-7" d="M2652.75,1239.94q-12.18-.3-24.36-.27c-55.22.2-110.49,4.83-165.25,12.78l-1.88.27h0c-32.7,4.79-65.21,10.74-97.42,17.65a1527.56,1527.56,0,0,0-333.64,112.68q-44,20.84-86.22,44.59c-.37.19-.72.39-1.09.59a0,0,0,0,1,0,0q-25.12,14.14-49.58,29.3c-.55.33-1.09.65-1.6,1a1406.2,1406.2,0,0,0-154.86,111.33q-8.5,7-16.94,14.15l-1.32,1.12a2016.77,2016.77,0,0,0-180,172.55c-.41.42-.81.85-1.22,1.29h0q-19.35,21-38.08,42.57-10.68,12.29-21.29,24.82h-7.38c15.73-18.71,31.83-37,48-55q46.89-51.92,97.23-100.77c.47-.47.92-.91,1.4-1.36h0A1919,1919,0,0,1,1763.89,1541q12.79-10.1,25.86-19.87h0c.47-.34.93-.68,1.38-1a1385.17,1385.17,0,0,1,231.43-139.41h0c.54-.28,1.06-.54,1.6-.78h0q22.59-10.81,45.58-20.82c3.43-1.48,6.86-3,10.29-4.43h0c.61-.29,1.24-.55,1.87-.8h0a1535.4,1535.4,0,0,1,250-81.93h0c.59-.16,1.17-.29,1.76-.43h0q32.73-7.65,65.72-13.86c83.27-15.64,168.54-25.21,253.35-23.14C2656.41,1234.53,2656.29,1240,2652.75,1239.94Z"/><path class="cls-7" d="M1608.11,1281.14c-54.65,126.19-22.44,265.54,8.66,393.22a.84.84,0,0,0,1.63-.42c-31-127.43-63.22-266.38-8.67-392.32.44-1-1.19-1.46-1.62-.48Z"/><path class="cls-7" d="M1716.5,1583.63c80.84,59.93,184.85,85.41,283.38,96q41.89,4.53,84.08,5a.84.84,0,0,0,0-1.68c-100.36-1.14-204.44-17.48-296.19-59.61a393.48,393.48,0,0,1-70.42-41.18c-.88-.65-1.75.8-.88,1.44Z"/><path class="cls-7" d="M2205.57,1109.69c-66,66.85-107,156.3-126.05,247.53-.22,1.06,1.4,1.54,1.62.48,19-91,59.81-180.14,125.6-246.79.76-.78-.41-2-1.17-1.22Z"/><path class="cls-7" d="M2150.42,1087a607.56,607.56,0,0,0-92.57,142.82c-22.22,48-40.76,99.5-35,153.25.12,1.07,1.81,1.11,1.69,0-5.8-54.44,13.35-106.71,36.08-155.2a606.2,606.2,0,0,1,91-139.7c.71-.81-.45-2-1.17-1.21Z"/><path class="cls-7" d="M1890.41,1457.72c117.69,76.73,261.36,113,401.38,105.64a632.78,632.78,0,0,0,116.82-17.06.84.84,0,0,0-.42-1.63c-135.76,33.08-282.39,19.73-411.44-33.12a631.76,631.76,0,0,1-105.46-55.27c-.91-.59-1.79.85-.88,1.44Z"/><path class="cls-7" d="M1943.23,1429.13c114.33,65.23,250.17,88.71,380.59,79.18a738.19,738.19,0,0,0,108.6-16.12.85.85,0,0,0-.41-1.64c-127.13,28.69-263.72,24.21-387.43-17.79a576.89,576.89,0,0,1-100.47-45.07c-.95-.54-1.83.9-.88,1.44Z"/><path class="cls-7" d="M2383.79,1161.82c-29.08,29.86-46,72-52.22,112.77-.16,1.07,1.53,1.09,1.69,0,6.15-40.31,22.95-82.06,51.7-111.58.76-.78-.41-2-1.17-1.22Z"/><path class="cls-7" d="M2459.39,1250.2a236.08,236.08,0,0,0,151.85,94.06c1.06.18,1.55-1.44.48-1.62a234.45,234.45,0,0,1-150.85-93.26c-.63-.87-2.11-.06-1.48.82Z"/><path class="cls-7" d="M1797,1228.55c-6,51.54-15.51,102.57-22.26,154-6.12,46.7-5,95.42,15.11,138.82.46,1,1.93.16,1.47-.83-20.9-45.14-20.88-95.78-14-144.15,7-49.3,15.63-98.35,21.41-147.82.12-1.08-1.57-1.1-1.69,0Z"/><path class="cls-7" d="M1619,1788.73c46.52,15.81,95.17,29.35,144.57,38l-8.46,0c-75-13.43-148.48-37.65-217.76-67.71-.76-.32-1.49-.65-2.24-1-1-.42-.53-2,.48-1.61s2,.86,3,1.29Q1578.13,1774.81,1619,1788.73Z"/><path class="cls-4" d="M1165.28,1826.92l-35.53,0h-7l-104-.11h-4.31L665,1826.39c-21.35-21.73-39.81-42.75-58.72-58.15-.46-.39-.91-.75-1.37-1.11v0c-21.91-17.5-44.51-27.31-73-21.82-107.06,20.59-177.37-15.78-218.58-73.76-.34-.48-.69-.94-1-1.44h0a231.92,231.92,0,0,1-23.93-44c-.21-.48-.41-1-.6-1.46h0c-2.08-5.09-4-10.24-5.75-15.47-30.56-90.55-262.89-73.21-206.32-194.52S359,1368.77,431.45,1299.82a249.93,249.93,0,0,1,26.21-21.67l1.23-.89h0c77.12-54.94,199-80,284.52,19.48,27.82,32.38,52.47,46.57,77.39,53.19.52.15,1,.28,1.54.41,61,15.49,124.2-13,240.51,70.52C1195.13,1515.83,1177.41,1741.53,1165.28,1826.92Z"/><path class="cls-5" d="M1129.74,1826.88h-7q-17.54-17-35.55-33.61l0,0-1.14-1A1767.2,1767.2,0,0,0,916.65,1655c-.41-.28-.83-.59-1.23-.89q-7.89-5.58-15.79-11.08a1229.31,1229.31,0,0,0-143-85.71c-.46-.26-1-.51-1.46-.74q-22.39-11.43-45.34-21.93l-1-.44s0,0,0,0q-38.53-17.62-78.35-32.57a1335.94,1335.94,0,0,0-298.88-73.88c-28.57-3.66-57.32-6.47-86.16-8.27h0l-1.66-.1a1031.79,1031.79,0,0,0-144.89.91q-10.62.86-21.2,2c-3.08.33-3.57-4.47-.49-4.78,73.74-8,148.71-5.87,222.41,1.7q29.18,3,58.25,7.29h0l1.56.24h0a1341.65,1341.65,0,0,1,223.78,53.16h0l1.69.56c3.1,1,6.21,2.07,9.29,3.12q20.76,7.07,41.23,14.81h0l1.46.56h0a1211.83,1211.83,0,0,1,211.78,104.62h0l1.28.79q12.09,7.56,24,15.42A1677.65,1677.65,0,0,1,1011,1720.93c.46.35.89.71,1.33,1.08q47.4,38.81,92,80.71Q1117.1,1814.65,1129.74,1826.88Z"/><path class="cls-5" d="M990.72,1382.11c56.81,106,38.89,229.7,21.1,343.2a.74.74,0,0,1-1.46-.25c17.76-113.28,35.68-236.67-21-342.42-.45-.83.93-1.36,1.38-.53Z"/><path class="cls-5" d="M918.32,1653.54c-66.07,58.09-154.82,87.87-239.89,104.31q-36.16,7-72.89,10.47a.74.74,0,0,1-.15-1.47c87.36-8.3,176.85-30.12,253.71-73.5a344.43,344.43,0,0,0,58.35-41c.72-.63,1.58.57.87,1.2Z"/><path class="cls-5" d="M457.72,1276.25c62.35,53.43,104.6,128.37,127.84,206.47.27.9-1.1,1.44-1.37.53C561,1405.39,519,1330.67,456.79,1277.39c-.72-.61.21-1.76.93-1.14Z"/><path class="cls-5" d="M504.11,1252.49a530.86,530.86,0,0,1,91,117.69c22.86,40.21,42.76,83.71,41.68,131,0,.94-1.49,1.1-1.47.15,1.1-47.85-19.39-92-42.73-132.58a530.25,530.25,0,0,0-89.46-115.08c-.67-.66.25-1.81.93-1.14Z"/><path class="cls-5" d="M757.64,1556.51c-96.95,75.41-219.48,117.45-342,121.26a553.27,553.27,0,0,1-103-6.35.74.74,0,0,1,.24-1.46c120.69,18.94,247.47-3.37,356-58.82a551.55,551.55,0,0,0,87.86-55.83c.75-.58,1.61.61.87,1.2Z"/><path class="cls-5" d="M709.54,1535.45c-94.86,65.15-211.49,95.5-325.81,96.7a646.08,646.08,0,0,1-95.79-6.14.74.74,0,0,1,.24-1.46c112.85,15.73,231.52,1.89,336.24-43.72a504.17,504.17,0,0,0,84.25-46.58c.79-.53,1.66.66.87,1.2Z"/><path class="cls-5" d="M306.25,1334.65c27.51,23.9,45.32,59.39,53.71,94.44.22.92-1.25,1.06-1.47.15-8.3-34.67-26-69.82-53.17-93.45-.72-.62.21-1.77.93-1.14Z"/><path class="cls-5" d="M246.82,1417.15a206.46,206.46,0,0,1-125.44,93c-.91.23-1.45-1.15-.53-1.38a205,205,0,0,0,124.63-92.24c.48-.8,1.83-.2,1.34.61Z"/><path class="cls-5" d="M822.29,1350.05c9,44.46,21,88.23,30.61,132.55,8.74,40.24,11.29,82.77-3,122-.33.89-1.67.28-1.34-.61,14.92-40.85,11.21-85,1.73-126.61-9.66-42.44-20.78-84.55-29.41-127.22-.19-.93,1.28-1.08,1.46-.15Z"/><path class="cls-5" d="M1089.07,1792.25l-1.89,1c-22.26,12-45.11,23.2-68.45,33.5h-4.31l3.78-1.65q34.58-15.06,67.82-32.91c.84-.43,1.67-.87,2.51-1.33S1089.89,1791.79,1089.07,1792.25Z"/><rect class="cls-8" x="879.85" y="163.46" width="1131.96" height="1485.52" rx="40.61"/><polygon class="cls-9" points="1936.51 472.9 1936.51 1720.18 804.56 1720.18 804.56 234.67 1731.73 234.67 1936.51 472.9"/><path class="cls-6" d="M1938.51,1722.17H802.56V232.67h930.09l.59.7,205.27,238.79Zm-1132-4h1128V473.64l-203.7-237H806.55Z"/><polygon class="cls-6" points="1936.51 472.9 1731.73 472.9 1731.73 234.67 1936.51 472.9"/><rect class="cls-10" x="1469.7" y="976.11" width="356.04" height="326.72" rx="40.94"/><polygon class="cls-11" points="1642.6 1242.7 1513.78 1118.54 1551.57 1079.34 1635.67 1160.4 1728.56 1034.61 1772.36 1066.95 1642.6 1242.7"/><polygon class="cls-9" points="1659.77 1237.47 1530.96 1113.32 1568.74 1074.11 1652.85 1155.18 1745.73 1029.38 1789.54 1061.72 1659.77 1237.47"/><path class="cls-10" d="M1157.71,350.16a38.18,38.18,0,0,1-31.56-16.57L1013.06,168.33a63.51,63.51,0,0,1,17-88.55,55.1,55.1,0,0,1,76.48,14.94L1253.4,313a10,10,0,0,1-16.55,11.14L1089.94,105.86a35.15,35.15,0,0,0-48.79-9.53,43.54,43.54,0,0,0-11.62,60.73l113.08,165.26A18.19,18.19,0,0,0,1172.76,302l-78.85-118.22a10,10,0,0,1,16.59-11.07l78.85,118.22a38.1,38.1,0,0,1-31.64,59.27Z"/><polygon class="cls-9" points="1233.33 234.67 1160.27 234.67 1250.09 365.45 1282.2 333.81 1233.33 234.67"/><polygon class="cls-8" points="1121.18 163.46 1167.71 163.46 1208.67 234.67 1160.27 234.67 1121.18 163.46"/><path class="cls-12" d="M2431.34,1694.51c-2,18.28-19.66,16.44-28,24.2-2.85,2.65.32,12.24-2.08,9.19-11.34-14.43-50.58-50-93.41-90.28l-1.94-1.82c-61.67-58-130-125.08-132.88-152.25-5.46-51,24.21-312.56,31-325s78.3-31.92,78.3-31.92,88.65,144.43,40.64,183.1c-18.73,15.08-33.85,39.15-45.35,62.86a417.2,417.2,0,0,0-20.35,50.94c-4.44,13.53-6.66,22.45-6.66,22.45a225.85,225.85,0,0,1,40.22,29.35h0c2.52,2.34,5,4.79,7.47,7.34,10.82,11.29,20.38,24.65,24.65,39.23C2335.62,1565.35,2431.34,1694.51,2431.34,1694.51Z"/><path class="cls-13" d="M2384.29,1625.44s.89,60.43-8.53,76l-17.46-16.81,22.27-65.51Z"/><path class="cls-13" d="M2307.86,1637.62l-1.94-1.82-18.1-17.13c17.6-48.77-18.11-155.45-18.11-155.45l21.11,12.1c2.52,2.34,5,4.79,7.47,7.34Z"/><path class="cls-12" d="M2274.18,1432.83c28.83,132.21,35.7,329.36,35.7,329.36s26.45,9.39,48.56-2.17c0,0,24.26-131.22,30.45-169.6s-7.43-76.75-12.38-94.08c-4-14.08,34.63-149.49,25.44-270C2397.87,1173,2205.06,1115.9,2274.18,1432.83Z"/><path class="cls-10" d="M2394,1485.81s-66.42,11.79-115.88-4.07c-76.69-24.6-109.16-13-109.16-13-4.45-24.67,7.3-128.89,18.28-214.76a1.23,1.23,0,0,1,0-.21c5.17-40.49,10.17-76.87,13.24-98.9,1.86-13.49,3-21.6,3-22,.08,0,138.2-.84,149.51,10.06.09.08,4.94,5.32,5,5.4,21,20.26,40.12,46,43.86,78C2411.42,1307.18,2404.7,1434.83,2394,1485.81Z"/><path class="cls-14" d="M2303.75,1165.48c-97,5-115.53,83.58-116.43,88.31,5.17-40.49,10.17-76.87,13.24-98.9Z"/><path class="cls-15" d="M2384.79,1281.87s-2.6-78.36-27.25-88.64-32.78,8.22-20.5,28.25S2374.53,1303.21,2384.79,1281.87Z"/><polygon class="cls-16" points="2333.22 1806.08 2333.22 1826.55 2356.53 1826.55 2361.84 1804.22 2333.22 1806.08"/><path class="cls-12" d="M2313.24,1748.56s-3.38,27.55-20.79,37.74c-14,8.21-24.48,15.72-24.48,15.72-1.59,3.63-17.24,18.29-13.42,18.29l54.93,3.73s13.73-17.26,26.1-15.41,30.28-13.64,25.46-24.71-2.6-23.9-2.6-23.9Z"/><path class="cls-8" d="M2268,1802s-32.9,18.59-26.77,24.53h67.27a8.61,8.61,0,0,0,7-3.56c3.41-4.71,11-12.92,24.11-12.62,27.22.62,26.23-6,21.49-26.45,0,0-32.76,16.7-52.81,21.32C2269.83,1814.07,2268,1802,2268,1802Z"/><polygon class="cls-16" points="2450.07 1743.57 2465.65 1756.84 2480.77 1739.08 2467.2 1720.56 2450.07 1743.57"/><path class="cls-12" d="M2391.8,1717.34s20.3,24.59,16.78,44.45c-2.84,16-3.89,28.83-3.89,28.83,1.73,3.57,2.75,25,5.22,22.08l38.45-39.41s-4.25-21.65,5.18-29.87,9.24-31.9-2.32-35.4-19.88-13.51-19.88-13.51Z"/><path class="cls-8" d="M2404.69,1790.62s-7.17,37.11,1.33,36.28l43.59-51.22a8.57,8.57,0,0,0,1.81-7.61c-1.38-5.65-2.71-16.75,6-26.55,18.11-20.32,12.45-23.83-6.22-33.5,0,0-8.51,35.77-18,54C2415.07,1797,2404.69,1790.62,2404.69,1790.62Z"/><path class="cls-12" d="M2124.15,896s-9.33-24.61-16.94-29.63c-34.52-22.78-33.09-21.38-35.45-29.06-5.58-18.22,1.94-38.32,4.49-38.67,2.32-.31,1.65,10.13,1,13.22-1.31,6,6.57,15.39,6.57,15.39s-.22-12.19,1.22-17.54c1.13-4.19,6.86-17.68,8-17.58,4.13.37,1,10-.14,18.76-.81,6.19,4.32,19.8,4.32,19.8s0-10.7,1.36-16c1.46-5.88,9.27-17.67,11-17.3,2.92.63-.1,8.52-1.23,16.73-.9,6.58,3.72,18.12,3.72,18.12s2.16-7.22,4.82-11.11,9.3-10,10.11-8.53c1.51,2.78-.28,6.08-4.13,12.75-2.2,3.81.42,13.94,6.54,18.33,1.16.84,16.23,6.87,20.12,21.44S2124.15,896,2124.15,896Z"/><path class="cls-17" d="M2268.1,908.55s-11.23-17.46-45.64-4.6c-10.57,3.95-35.68,34.8-48.63,51.27-3.71,4.72-19.21,28.51-27.56,36-3,2.69-6.13,5.44-9.31,8.2,4-28.33,5.86-52.85,8.42-69.84,3.2-21.27,8-40.48,2.21-54.32-1.13-2.69-10.79-.26-19.4-.53-7.37-.23-13.7-3.36-15.4-2.1-14.91,11.06-24,63.31-36.88,103.31-15.94,49.39-7.07,81,3.21,97.31,5.75,9.14,82.47,23.11,151-24.32S2268.1,908.55,2268.1,908.55Z"/><path class="cls-18" d="M2136.66,996.66c-.94,6.7,1.27,13.32.16,20.11a39,39,0,0,1-8.56,18.64c-.32.39.27.92.6.52a39.82,39.82,0,0,0,8.38-17.12,38.42,38.42,0,0,0,.84-9.57c-.17-4.17-1.23-8.23-.64-12.41.07-.51-.71-.68-.78-.17Z"/><path class="cls-19" d="M2271.13,848.25,2254,925.38l108,176.74s37.09-25.54,81.93-6.13c12.45,5.39,27.89,2,39.63-4.31,17.94-40.84-.18-69.77-.18-69.77,13.86,23.36,13.48,47.13,10.06,64.91,15.47-8,20.43-12.78,20.43-12.78,14.2-45.38-8.81-143.08-95.05-169.42S2344,817.06,2344,817.06Z"/><path class="cls-12" d="M2347.22,1082.18c-1.78-75.19,22.1-174.9,2.92-182.55s-29.17-7-45.92-13.19c-20.7-7.71-22.1-10.24-55.87,6.45s-29.23,16.76-29.23,16.76-22.53,80.57-23.42,100.1c-1.37,30.07,15.19,36.93,15.19,36.93s25.49,49.27,30.47,71.45c1.46,6.47-.88,32.58-.88,32.58l138.93-25S2347.7,1102.73,2347.22,1082.18Z"/><path class="cls-17" d="M2364.8,998.18s-13,70.88-14.29,82a7.81,7.81,0,0,0,.87,4.1c5.45,11.83,33.6,30.59,28,41.51-1.63,3.2-11.88,6.44-26.13,9.46l0,0h-.06l-.23,0c-2.4.51-4.92,1-7.53,1.5l-2,.39c-41.23,7.64-102.94,13.53-102.94,13.53v0a50,50,0,0,0,1.39-8.79,73.79,73.79,0,0,0-8.21-39.92v0c-13.19-25.37-22.48-54.36-22.76-55.25v0s0,0,0,0a27.78,27.78,0,0,1-10.5-6.35c-6.67-6.31-12.91-18.31-6.38-40.12,7-23.23,10.53-72.61,23.38-92.78,2.32-3.64,31.21-14.84,31.21-14.84s-24.07,82.42-13.67,94c10.24,11.36,44.37-30.69,62.58-63.81,2.21-4,18.2-27.85,23.7-31.68.27-.19,16.7,2.91,35.55,9.4C2364.86,903.24,2379.44,919.82,2364.8,998.18Z"/><path class="cls-12" d="M2447.39,1109.81a5.14,5.14,0,0,1-1.2,2.61c-6.08,7-21.51,34.12-82.25,39.53-52.85,4.72-70.13,14.38-70.13,14.38l-32.8-37.59s13.06,17.16,88.28-22.82c28.63-15.22,36.18-20.73,36.18-20.73S2457.87,1039.14,2447.39,1109.81Z"/><path class="cls-12" d="M2402.49,1084.68s-32.71-73.61-56.23-87.71,30.46-37.72,53.46-30.8,65.76,100.12,46.28,152.45Z"/><path class="cls-19" d="M2236.82,777s-6.21-20.82,15.13-36.36,34-18.28,53.1-11.08,44.25,11.59,54.1,29.4c15.28,27.58,8.25,65.32-18.2,89.9s-48.46,6.59-62,10S2236.82,777,2236.82,777Z"/><path class="cls-12" d="M2305.08,904.4s-22.44,20.4-53.07,9.36a184.61,184.61,0,0,0,1.64-30.79c-.27-6.2-.38-23.81-2-30.24a21.29,21.29,0,0,1,2.06-2.26h0c12.21-11.91,43.54-22.15,43.84-22.25a51,51,0,0,0-5.6,19.57,57.31,57.31,0,0,0-.22,7.86,60.17,60.17,0,0,0,1.16,9.58A213.86,213.86,0,0,0,2305.08,904.4Z"/><path class="cls-20" d="M2291.79,855.64c-10.42,15.93-37.93,19-38.39,19.22-.27-6.19-.13-15.7-1.7-22.13a8.9,8.9,0,0,0-.33-1.14,25,25,0,0,1,2.39-1.12h0c12.46-5.16,31.53-3.35,38.24-2.68A57.31,57.31,0,0,0,2291.79,855.64Z"/><path class="cls-12" d="M2286.13,858.25c-32.22,10.09-56.27-.2-61.56-4.2s-3.45-9.42-6.92-26.57c-2.38-11.82-.49-21.42,2.84-27.92a23,23,0,0,1,5.13-6.83c.57-.5,1.06-1,1.48-1.42,4-4.18,2.1-6.65,4.86-15.42a20.45,20.45,0,0,1,4.47-6.78c1-1.07,2-2.16,3.18-3.24,8.48-8,20.69-15.79,20.69-15.79,51.73-13.46,70.41,31.37,67.5,48.2S2318.34,848.15,2286.13,858.25Z"/><path class="cls-21" d="M2295,792.53s-.62-12.48-22.64-14.28c-13.1-1.07-13.25,5.19-6.09,6.72S2277.82,780.68,2295,792.53Z"/><path class="cls-21" d="M2241.86,776.68c-2.49-1.51-3.79-5.58-5.43-7.57,1-1.07,2-2.16,3.18-3.24a8.65,8.65,0,0,1,2.69,1.79C2248.81,773.82,2246,779.2,2241.86,776.68Z"/><path class="cls-21" d="M2242.23,793c-1,3.17-2.21-7.71-5-9.48-2.58-1.62-6.69-1.11-8.71-3.31a.72.72,0,0,1,.82-1.14,13,13,0,0,0,5.16,1C2238.68,780.05,2244.93,784.34,2242.23,793Z"/><path class="cls-21" d="M2238,790.18a4.76,4.76,0,0,1-3.78-.66,6.36,6.36,0,0,1-2-3.44,3.66,3.66,0,0,1,1.43-4.16l1.71-1,3.14,2,1.16,1.44.07,1.85.83,2.19A3.37,3.37,0,0,1,2238,790.18Z"/><path class="cls-22" d="M2260.39,796.09s4.77-7.33,9.48-8.51,16.69,3.28,18,6.51.52,7.69.52,7.69S2277.07,787.08,2260.39,796.09Z"/><path class="cls-21" d="M2274.05,799.63a5.3,5.3,0,1,1-6-7c1.87.69,3.7,1.42,5.39,2.16a5.31,5.31,0,0,1,.61,4.89Z"/><path class="cls-21" d="M2288,802.92c-1.22,2-4.65-.62-6.62-1.9-.47-.31-.94-.64-1.4-1a46.85,46.85,0,0,0-4.35-3.08,15.23,15.23,0,0,0-4.28-1.64,16.15,16.15,0,0,0-13,2.71c.21-.21,7.45-8.57,18.24-5.79C2284.38,794.27,2288.88,801.47,2288,802.92Z"/><g class="cls-1"><path class="cls-23" d="M2292.23,817.47a15.63,15.63,0,0,0-11.4-6.3l-7.53-.6c-4.94-.39-10.2-.73-13.94,1.5a4.94,4.94,0,0,0-2.27,2.62c-.89,2.71,1.49,4.78,3.88,6.38a44.15,44.15,0,0,0,21.94,7.3,29.6,29.6,0,0,0,3.65,0c6.23-.46,9.09-5.94,5.67-10.86Z"/></g><g class="cls-1"><path class="cls-23" d="M2232.52,801.93a3.14,3.14,0,0,1-3.24,2.07,10.47,10.47,0,0,1-8.25-3.75,7.48,7.48,0,0,1-.54-.69,23,23,0,0,1,5.13-6.83c.57-.5,1.06-1,1.48-1.42a3.89,3.89,0,0,1,.48.43l2.17,2.32c1.42,1.51,2.9,3.16,3.1,5.67A5,5,0,0,1,2232.52,801.93Z"/></g><path class="cls-20" d="M2245.67,780.34c3.06,3.32,3.14,8.14,1.26,12.09-2.29,4.84-7.13,7.83-11.54,10.49-2.08,1.24-4.93,3-4.28,5.82.72,3.19,5,5.91,7.57,7.49.54.34,1.13-.46.59-.81-2.11-1.32-4.74-3-6.15-5.1-2.9-4.3,2.12-6.1,4.85-7.81a29.73,29.73,0,0,0,8.21-7c3.46-4.59,4.39-11.35.27-15.83-.44-.47-1.21.16-.78.63Z"/><g class="cls-1"><path class="cls-10" d="M2226,841.73a17.34,17.34,0,0,1,11.13,2.48,1,1,0,0,1-1.06,1.69,15.08,15.08,0,0,0-9.62-2.22c-1.27.13-1.73-1.81-.45-1.95Z"/></g><g class="cls-1"><path class="cls-10" d="M2235.27,808a27.39,27.39,0,0,1,7,5.62c.85,1-.6,2.34-1.45,1.38a25.19,25.19,0,0,0-6.56-5.29c-1.12-.63-.08-2.34,1-1.71Z"/></g><path class="cls-19" d="M2282.05,751.93a25.06,25.06,0,0,1,17.26,20.91c2.29,16.95,11.15,41.63,14.35,44.78s-9.45,19-9.45,19,1.64,12.27-12.42,19.48c0,0,19.84.6,30.39-9s15.78-56.69,10.06-74.65-29.32-31.28-36.86-31.07S2282.05,751.93,2282.05,751.93Z"/><path class="cls-12" d="M2301,813.54s14.85-10.91,21.21-1-7.24,18.57-12.38,21.93c-5.51,3.6-7.64,2.84-13.44-1.17S2301,813.54,2301,813.54Z"/><path class="cls-20" d="M2297.44,831.67c1.39,6.1,8.21,4.77,12.09,2.33a45,45,0,0,0,8.65-7.17c3.5-3.76,7.09-9.85,3-14.58-3-3.46-7.79-3.42-11.66-1.59-.6.28-1.1-.62-.5-.91,4.13-2,9.11-2,12.52,1.39,4.06,4.1,2.48,9.79-.58,14-3.25,4.48-8.91,9.64-14.27,11.48-4.18,1.43-9.17-.05-10.23-4.69-.15-.65.86-.9,1-.25Z"/><path class="cls-20" d="M2315.14,814.18a6.57,6.57,0,0,0-4.46,1.47,8.94,8.94,0,0,0-1.24,4.63,9.56,9.56,0,0,1-.54,1.23c-1.55,2.33-7.74,2.07-7.48,5.72,0,.66-1,.64-1,0a3.62,3.62,0,0,1,1.8-3.55c2.85-1.92,5.22-.61,6.26-5.09.86-3.71,2.73-5.24,6.7-5.43.67,0,.65,1,0,1Z"/><path class="cls-19" d="M2282.05,751.93s-15.86-4.86-32.92,6.29a28.65,28.65,0,0,0-4.52,3.27c-10.12,9.93,16.34-39.69,50.77-20.08S2282.05,751.93,2282.05,751.93Z"/><path class="cls-17" d="M2321.17,891s39.24,6.52,56.41,16.15,30.66,42.17,50.32,72.14,46.66,101.72,25.77,149.19-114.36,40.93-126.8,26.88c0,0,2.74-22.19-9.81-35.42l28.43-88.26Z"/><path class="cls-18" d="M2318.57,1121.16c-.19-17.65,19.23-23.09,32.77-27.3,17.63-5.47,34.76-18.22,54.07-13.91.64.15.52,1.18-.13,1-17.84-4-33.47,6.92-49.59,12.55-13.68,4.78-36.3,8.61-36.1,27.48,0,.66-1,.82-1,.15Z"/><path class="cls-18" d="M2381.6,1081.91a92.75,92.75,0,0,1,14.22-16.11c.5-.45,1.13.37.64.82a91.69,91.69,0,0,0-14,15.92c-.38.55-1.2-.08-.82-.63Z"/><path class="cls-18" d="M2381.3,1082c.32-6.39-3-12.08-6-17.51s-5.63-10.83-8.08-16.42a221.54,221.54,0,0,1-11.58-33.51c-.16-.65.86-.79,1-.15a218,218,0,0,0,13.32,37.28c2.6,5.59,5.62,10.94,8.43,16.43,2.26,4.42,4.12,9,3.87,14,0,.66-1.06.53-1-.13Z"/><path class="cls-18" d="M2301,1041a47,47,0,0,1-45.75,9.1c-.63-.21-.24-1.17.39-1a45.9,45.9,0,0,0,44.72-9c.5-.44,1.14.38.64.82Z"/><path class="cls-19" d="M2513.94,1062.39c12.3-41.77,2.24-87.45-27.07-119.76a123.14,123.14,0,0,0-52.36-34.29c-11.85-3.92-24.14-6.36-35.76-11A121.13,121.13,0,0,1,2369.61,881c-15.36-11.87-28-28.71-28.82-48.73,0-.67,1-.65,1,0,.84,20.88,14.87,38.29,31.26,50a124.35,124.35,0,0,0,33.39,16.79c11.59,3.83,23.64,6.21,35,10.71,36.55,14.43,65.09,47,74.81,85.09a128.29,128.29,0,0,1-1.37,67.82.52.52,0,0,1-1-.28Z"/><path class="cls-24" d="M2338.73,844c-7.59,19.08,9.25,38.79,21.5,51.57,14.68,15.3,31.91,27.81,48,41.47,29.41,24.91,54.29,57,58.11,96.61,2.07,21.42-2.35,43.36-13.93,61.62-.36.56-1.25,0-.89-.54,22.56-35.55,16.21-80.66-5.61-114.86-11.16-17.49-26-31.78-41.83-45-16.24-13.5-33.38-26.14-47.64-41.83-11.48-12.63-25.95-31.24-18.75-49.35.24-.62,1.24-.34,1,.28Z"/><path class="cls-24" d="M2338.7,845.89c-18.47,16.12-1.62,41.86,9.89,56.35,12.71,16,28,29.66,42.47,44,23.76,23.45,48.08,52.37,48.92,87.51a73.06,73.06,0,0,1-23.52,54.92.52.52,0,0,1-.71-.75,72,72,0,0,0,23.16-55.42c-.73-17.77-7.93-34.54-17.57-49.25-21.72-33.16-56.08-55.27-78.94-87.5-10-14.12-20.57-36.49-4.41-50.58.5-.44,1.21.31.71.75Z"/><path class="cls-24" d="M2286,748.17c31.8,10.08,27.37,55.62,57.8,67.28.62.24.34,1.24-.28,1-30.58-11.72-26.22-57.27-57.8-67.29a.51.51,0,0,1,.28-1Z"/><path class="cls-24" d="M2286.17,747.86c16.14-2.06,26,13,33,25.09,4.94,8.54,10.28,16.43,18.46,22.21a52.78,52.78,0,0,0,27.57,9.48c.67,0,.65,1.08,0,1a53.52,53.52,0,0,1-40-21.19c-9.89-13.29-17.82-38.3-38.78-35.62-.66.08-.91-.92-.25-1Z"/><g class="cls-25"><path class="cls-18" d="M2363.17,1037.24c-3.73-9.23,10.2,25.46-2.41,39.75s-28.93,24.79-28.93,24.79,29.64-12.47,50-19.68C2387.05,1080.24,2369.56,1053.05,2363.17,1037.24Z"/></g><path class="cls-18" d="M2382.86,912.73c-9.3,2.24-19.33,4.69-26.59,11.32-7.93,7.24-10.78,19.06-12.27,29.29a90.56,90.56,0,0,0,12.05,59.48l-.89.52-2.82-9.16c-.19-.63.76-1,.95-.41l2.82,9.16c.16.51-.55,1.07-.88.53a91.55,91.55,0,0,1-11.83-62.89c1.72-9.75,4.68-20.45,12.23-27.34s17.6-9.24,27.08-11.52c.65-.16.79.87.15,1Z"/><path class="cls-18" d="M2362.89,917.51a94.13,94.13,0,0,0-40.51-22.32c-.64-.17-.52-1.2.12-1a95.24,95.24,0,0,1,41,22.52c.49.45-.14,1.28-.63.83Z"/><path class="cls-18" d="M2201.4,959.14c-1.27,15.87-6.42,31.16-8.5,46.93-1,7.73-1.59,16,.94,23.55,2.84,8.42,9.62,15.78,18.94,16,.66,0,.53,1-.13,1-17-.48-22.26-19.54-21.48-33.48,1-18.38,7.74-35.89,9.2-54.2.06-.67,1.08-.54,1,.13Z"/><path class="cls-19" d="M2281.7,741.69a34,34,0,0,0-26,.61,32.68,32.68,0,0,0-10.42,7.34c-3.34,3.54-5.93,7.64-9.89,10.58-7.2,5.34-15.53,8.21-22.18,14.49a57.6,57.6,0,0,0-15.76,25.93.52.52,0,0,1-1-.28,58.9,58.9,0,0,1,14.56-25,56.59,56.59,0,0,1,11.47-9c4.79-2.84,10.09-4.91,14.29-8.65,3.84-3.42,6.43-8,10.36-11.33a34.35,34.35,0,0,1,10.39-6,34.85,34.85,0,0,1,24.5.23c.62.24.34,1.24-.28,1Z"/><path class="cls-19" d="M2278.32,747.05a28.9,28.9,0,0,1,16,21.24c.85,5.31.31,10.83,2.12,16,1.59,4.48,4.51,8.32,6.59,12.56,1.57,3.2,2.7,6.7,2.18,10.31-.71,4.87-4.13,8.56-7,12.34-6.9,9.19-6.41,21.74-14,30.43-.44.5-1.15-.25-.72-.75,6.91-7.93,6.45-19.27,12.12-27.89,3-4.55,7.5-8.45,8.43-14.06.76-4.64-1.31-8.83-3.54-12.77a76,76,0,0,1-4.73-8.91c-1.53-3.82-1.77-7.83-2-11.88-.72-11.16-5.74-20.66-16.07-25.7-.59-.29-.06-1.18.54-.89Z"/><path class="cls-19" d="M2430.25,891.75c-36.72,7.72-71.16-14.57-87.67-46.61-.3-.59.6-1.09.91-.49,16.29,31.61,50.24,53.72,86.51,46.1.65-.14.9.87.25,1Z"/><path class="cls-19" d="M2310.67,734.74c-7.66-7.92-20.3-11.37-31.1-9.62-12,1.94-17.48,12.15-22,22.3-.27.61-1.16.07-.89-.53,4.84-11,10.84-21.37,23.82-22.95,10.88-1.32,23.18,2.12,30.88,10.08a.52.52,0,0,1-.75.72Z"/><path class="cls-8" d="M2112.08,1043.18s93.94-2.5,110.54-2c0,0,39.5,116.31,41.34,154.29,0,0-80.87,3.78-120.63-.24C2143.33,1195.27,2110.81,1056.63,2112.08,1043.18Z"/><path class="cls-12" d="M2302.8,1127.39s-25.16,7.74-33.8,4.81c-39.16-13.29-37.18-13-44.69-10.16-17.81,6.77-29.07,25-27.78,27.26,1.17,2,9-4.91,11-7.34,3.9-4.69,16.19-4.25,16.19-4.25s-9.77,7.3-13.11,11.72c-2.61,3.47-9.75,16.26-9,17.11,2.83,3,8.52-5.37,14.73-11.63,4.39-4.43,18.28-8.73,18.28-8.73s-8.42,6.6-11.78,10.88c-3.75,4.76-8.26,18.16-6.93,19.27,2.29,1.93,6.66-5.3,12.46-11.23,4.64-4.75,16.58-8.18,16.58-8.18s-4.37,6.14-5.81,10.62-2.21,13.5-.53,13.22c3.11-.51,4.63-4,7.53-11.09,1.66-4.07,11.27-8.22,18.49-6.08,1.38.41,15.38,8.6,29.27,2.74S2302.8,1127.39,2302.8,1127.39Z"/><path class="cls-26" d="M2187.19,1029.7s13.44-1.81,9.71,16.33l-24,1.37,4.4-12.21,4.91-5Z"/><path class="cls-27" d="M2187.19,1029.7s-17,9.66-9.93,32.51-11.06,26.92-11.06,26.92l-103.7,9.61s14.91-19.61,8.45-36.53,2.48-19.82,15.73-21.42C2101.52,1039,2187.19,1029.7,2187.19,1029.7Z"/><path class="cls-10" d="M2249.8,830.11a17.78,17.78,0,0,1-8.71-6.43c-2-2.82-6.13-1.42-6.13-1.42v0a3.47,3.47,0,0,0-2.49-2.09c-2.56-.56-6.74,2.48-6.95,2.61,0,0-1.69,11,8.24,13.06C2240.36,837.23,2245.84,831.71,2249.8,830.11Z"/><path class="cls-28" d="M2236.76,831.23l-.26-.21a17.06,17.06,0,0,1-4.68-1.26,5.39,5.39,0,0,0-1.7-.67,1.31,1.31,0,0,0-1.45.83,1.65,1.65,0,0,0,.75,1.51,9.8,9.8,0,0,0,5.31,2,2.41,2.41,0,0,0,2-.44A1.33,1.33,0,0,0,2236.76,831.23Z"/><path class="cls-14" d="M2225,822.71c6.72,7.07,18.86,8.52,28.1,7.19.42-.06.24-.7-.18-.64-8.94,1.29-21-.19-27.44-7-.3-.31-.77.16-.48.47Z"/><polygon class="cls-16" points="599.06 1821.11 599.06 1826.92 571.38 1826.92 568.19 1815.67 599.06 1821.11"/><path class="cls-29" d="M610.41,1756.6s10.33,30.89,26,40.08c12.66,7.41,36.85,8.52,43.29,23.23a5,5,0,0,1-4.36,7h-65s-23.63-6.86-34.78-5.19-10.62-26.5-7.44-36.91.53-28.22.53-28.22Z"/><polygon class="cls-16" points="360.07 1821.11 360.07 1826.92 387.75 1826.92 390.94 1815.67 360.07 1821.11"/><path class="cls-29" d="M348.72,1756.6s-10.33,30.89-26,40.08c-12.66,7.41-36.84,8.52-43.29,23.23a5,5,0,0,0,4.36,7h65s23.63-6.86,34.78-5.19,10.63-26.5,7.44-36.91-.53-28.22-.53-28.22Z"/><path class="cls-8" d="M597.13,1222s21,76.26,23.15,130.42c1.85,46.39-2.54,146.39-1.89,223.86.92,111.44,7,188.73,4.1,192.27-5,6.2-9.94.4-30.67,5.29-22.49,5.29-32.53-5.68-32.53-5.68s-6.22-42.31-16.85-113.81c-3.81-25.67-8-53.44-12.16-81.54-14-93.34-20.35-178.75-25.08-188.66,0,0-20.1,74.93-48.39,184.14-32.76,126.52-57.13,201.61-59.88,211.46,0,0-10.16,5-29.12-3.16-7.35-3.17-25.12-2.4-30.82-8.21-7.5-7.63,27.81-156.18,40.82-314.92,11.76-143.63,33.7-202.91,44.38-228.65Z"/><path class="cls-29" d="M516.5,1355.76c-4.22,6-6.66,13-8.66,20.12-2.22,7.87-4.25,15.79-6.36,23.68a1,1,0,1,1-1.92-.55c2.18-8.15,4.25-16.34,6.57-24.44,2-7,4.49-13.92,8.65-19.86.75-1.07,2.48,0,1.72,1Z"/><path class="cls-29" d="M565.52,1338.87a57.6,57.6,0,0,0-19.87,15.25c-.32-.58-.64-1.17-1-1.75a175.79,175.79,0,0,1,27.78-4.69c1.27-.12,1.27,2,0,2.08a172.79,172.79,0,0,0-27.25,4.63,1.05,1.05,0,0,1-1-1.75,58.89,58.89,0,0,1,20.28-15.57c1.16-.54,2.17,1.26,1,1.8Z"/><path class="cls-29" d="M408.15,1346c-.53,2.23-1.07,4.45-1.6,6.68-.31,1.3-2.23.75-1.92-.56.53-2.22,1.07-4.45,1.6-6.68.31-1.3,2.23-.75,1.92.56Z"/><path class="cls-29" d="M400.46,1369.45l-1.71,10c-.22,1.32-2.14.76-1.92-.56l1.71-10c.23-1.32,2.15-.76,1.92.56Z"/><path class="cls-29" d="M394.15,1404.55c-.55,2.23-1.09,4.45-1.64,6.67-.31,1.3-2.24.75-1.92-.55.55-2.23,1.09-4.45,1.64-6.67a1,1,0,1,1,1.92.55Z"/><path class="cls-29" d="M389.22,1437.9l-1.77,11.66c-.21,1.33-2.13.77-1.93-.55q.9-5.84,1.78-11.66c.21-1.32,2.13-.76,1.92.55Z"/><path class="cls-29" d="M384.38,1487.71v13.36a1,1,0,1,1-2,0v-13.36a1,1,0,1,1,2,0Z"/><path class="cls-29" d="M384.05,1535.18a6.37,6.37,0,0,0-1.23,5.68,1,1,0,1,1-1.92.55,8.63,8.63,0,0,1,1.74-7.71c.84-1,2.24.46,1.41,1.48Z"/><path class="cls-29" d="M366.53,1578.86a68.23,68.23,0,0,0,29.29,22.45c1.19.47.67,2.49-.53,2a70,70,0,0,1-30.17-23c-.79-1,.61-2.53,1.41-1.48Z"/><path class="cls-29" d="M367.54,1584.87,378,1603.2c.66,1.16-1.06,2.21-1.72,1l-10.42-18.32c-.66-1.16,1.06-2.21,1.72-1.06Z"/><path class="cls-29" d="M538.47,1589.41l17.78,17.7c.93.92-.48,2.4-1.41,1.47l-17.78-17.69c-.93-.93.48-2.4,1.41-1.48Z"/><path class="cls-29" d="M548.34,1608.26a112.84,112.84,0,0,1,14.32,26.64c.47,1.25-1.46,1.79-1.92.55a110.63,110.63,0,0,0-14.12-26.13c-.78-1.07,1-2.11,1.72-1.06Z"/><path class="cls-29" d="M366.78,1631.4v3.76a1,1,0,1,1-2,0v-3.76a1,1,0,1,1,2,0Z"/><path class="cls-29" d="M363.19,1660.21v11.27a1,1,0,1,1-2,0v-11.27a1,1,0,1,1,2,0Z"/><path class="cls-29" d="M359.46,1690.79a11.73,11.73,0,0,0-1,6.71c.19,1.31-1.73,1.88-1.92.56a14.3,14.3,0,0,1,1.25-8.33c.57-1.2,2.29-.14,1.72,1.06Z"/><path class="cls-29" d="M355.81,1743.35a7.19,7.19,0,0,0-.94,5.49c.3,1.3-1.62,1.86-1.92.55a9.39,9.39,0,0,1,1.14-7.1,1,1,0,0,1,1.72,1.06Z"/><path class="cls-29" d="M451.27,1290.94,444,1313q-1.87,5.71-3.77,11.44c-.85,2.58-1.68,4.75-4.13,6-5.52,2.9-12.35,4-18.43,4.66a66.35,66.35,0,0,1-20.22-1.11c-1.25-.26-.72-2.27.53-2a64.66,64.66,0,0,0,18.46,1.15c6.1-.5,12.87-1.67,18.45-4.41,3.12-1.53,3.7-5.71,4.73-8.83s2.12-6.46,3.19-9.69q3.27-9.9,6.53-19.81c.42-1.26,2.34-.72,1.92.55Z"/><path class="cls-29" d="M594,1300.36q3.27,12.39,6.55,24.8c.52,2,.94,4,1.58,6,.81,2.48,2.61,3.13,4.8,4.06l11.09,4.67c1.17.5.66,2.52-.53,2-4.23-1.79-8.46-3.54-12.68-5.35-3.49-1.5-4.28-3.6-5.25-7.27q-3.74-14.16-7.48-28.34a1,1,0,1,1,1.92-.55Z"/><path class="cls-30" d="M378.17,989c.82,7.59,5.15,31.87,10.4,60.51.86,4.74,1.75,9.59,2.66,14.51h0c8.8,47.82,18.84,101.62,19.37,110.12,1.59,25.47-11.55,89.76-12.1,106.36-.13,4.16,11.92,1.7,25.34.5,14.78-1.32,43.4-.53,82.76,8.73,44.89,10.56,76.79,5.36,99.13-1.24,8.44-2.49,21.18-11.93,18.06-20.17-1.26-3.33-3-7.84-5-13.12-1.42-3.75-3-7.89-4.57-12.28h0c-8-21.81-17.19-49.7-18-66.21-.62-12.12,24.54-188,24.54-188L601.59,936.2c-88.83-22.13-186.34-.1-186.34-.1S373.16,943,378.17,989Z"/><path class="cls-12" d="M716.85,928.55l-15.67,64.29,42.93,6.87s-2.57-25.33,5.37-31.77S716.85,928.55,716.85,928.55Z"/><path class="cls-12" d="M712.59,955s8.07-22.88,21.5-27.36,20.75-2.25,26.12,3.12,7.1,22.62,1.72,33.36-16.19,19.43-28.73,16.74C721.87,978.45,712.59,955,712.59,955Z"/><path class="cls-30" d="M565.14,976.11,646.47,980s7.74,43.69,22.89,73.1c30.75,59.68,37.7,99.53-2.1,110.23-25.6,6.88-42.72-5.41-76.25-66.14C545.38,1014.49,565.14,976.11,565.14,976.11Z"/><path class="cls-30" d="M501,897.28s1.4,2.76,3.91,7.49c1.36,2.55,3.05,5.68,5,9.27,4.7,8.56,11,19.69,18.26,31.59,21.23,34.8,50.58,76.23,71.85,79.79,4.12.68,59.05,9,46.41-45.46-8.72-37.6-34-66.38-66.59-72-9.27-1.59-19.26-3.1-28.93-4.46C532.9,901,516,899,507.27,898,503.31,897.53,501,897.28,501,897.28Z"/><path class="cls-30" d="M273,1101.32s100.09,22.46,87.79,9.91c-8.74-8.91,57.69-85.15,71.1-87.24,21.39-3.34,43.54-45.8,58.53-81.34,4.44-10.52,8.25-20.42,11.22-28.53,1.27-3.48,2.4-6.63,3.34-9.35s1.73-5,2.34-6.78c.9-2.69,1.38-4.2,1.38-4.2s-17.66,4.32-40.22,8.94c-8.73,1.79-18.21,3.62-27.69,5.27-32.61,5.65-69.12,20.18-84.82,55.43C335.75,1008.7,282.22,1052.53,273,1101.32Z"/><path class="cls-12" d="M475.45,901.27A13.68,13.68,0,0,0,486,890.06c2-11.37,4.39-26.58,6-40.81.43-3.79-3.37-18.27-3.52-18.53.44.13,59.67,17.37,52.44,35.56-.32.81-.62,1.67-.88,2.56-1.75,5.81-2.35,13.12-2.35,20.5a114.92,114.92,0,0,0,.73,12.48c4.07.54,8.3,1.12,12.59,1.72a44.2,44.2,0,0,1,1,12.6c-.71,10.48-5.86,22.72-23.76,29.49a65.72,65.72,0,0,1-8.92,2.64c-12.13,2.75-21.58,0-28.92-5.62-8.6-6.58-14.3-17-18-27.09a116.13,116.13,0,0,1-3.91-12.83Z"/><path class="cls-13" d="M490.9,847.44c.37,2.7-.76,12.77-.74,15.87,13.36,27.2,47,25.85,47.47,26,0-7.38.6-14.69,2.35-20.5C526.66,862.19,498.45,846.29,490.9,847.44Z"/><path class="cls-31" d="M560.48,905.46c5,23.2-9.77,46.07-30.29,54.07-20.88,8.14-50,4-62.91-16.65C460.46,932,458,918.73,457.09,906c0-.67,1-.67,1,0,.77,11,2.72,22.16,7.6,32a41.14,41.14,0,0,0,25.57,21.54c21.38,6.6,46.92,1.45,60.56-18.18,7.07-10.17,10.35-23.2,7.7-35.6-.14-.65.82-.93,1-.27Z"/><path class="cls-12" d="M482.46,1154.22c-12-1.48-29.47,22.63-40,26.51h0l-17.87-5.44L412,1208.62l24.31,6.4h0a48.86,48.86,0,0,0,9.29,2.79c20.54,2.44,26.2-11.45,33.18-12.13,2-.19,14.57,1.36,15.5-1.88.52-1.82-11.59-5.72-17.47-8.22a.84.84,0,0,1,.05-1.57c8.37-2.37,25.4.3,26.56-4.55.25-1-9.25-4.18-15.15-6.32-3.17-1.14-9.14-.85-14-.33a.36.36,0,0,1-.2-.67,42.49,42.49,0,0,1,12.49-3.56c5.47-.53,19.87-.23,22.84-5.61,1.24-2.24-16.95-3.27-24.22-4.55a13.06,13.06,0,0,0-4.32.2.28.28,0,0,1-.18-.53,29.56,29.56,0,0,1,5.7-2.32c9.15-1.43,21.08-1.75,23.13-7.9C510,1156.27,485.1,1154.54,482.46,1154.22Z"/><path class="cls-30" d="M417.84,1222s-56.45-20.93-98.43-48.66c-38.63-25.52-45.49-61-46.46-72a8.3,8.3,0,0,1,5.51-8.58c13.11-4.62,47.25-13.89,68.91,5.32,27.27,24.18,34.9,38.92,56.57,56.19,13.05,10.41,34.3,16,35.53,21.73s-8.48,13-8.1,20.07S422.63,1223.55,417.84,1222Z"/><path class="cls-30" d="M747.69,993.72s-7.7,60.18-28.26,106.1c-27.26,60.89-47.66,63.56-59.89,65.18-3.77.5-9.1-5.85-11-9.11-7.12-11.94-23-43.58-8.4-68.61,18.32-31.5,31.26-41.89,43.92-66.55,7.62-14.85,9-36.79,14.29-39.12s14.38,5.75,21.27,4S748.25,988.72,747.69,993.72Z"/><path class="cls-31" d="M360.74,1111.23s-17.46-11.91-35.57-8.54c0,0,20-7.52,36.75-.6C361.92,1102.09,358.44,1107.62,360.74,1111.23Z"/><path class="cls-31" d="M390.8,1061.63s10.83-19.26,21.41-22.09-8.69,8.82-10.7,22.09-6.42,23.51-6.6,22.42S390.8,1061.63,390.8,1061.63Z"/><path class="cls-31" d="M666.82,1047.85s-26.6,26.57-27,51.9c0,0-13.72-31.37,23.84-59.26Z"/><path class="cls-32" d="M823.94,1102.22a6.24,6.24,0,0,0,.17,2.65.19.19,0,0,0,.36-.1,5.79,5.79,0,0,1-.17-2.45c0-.24-.32-.34-.36-.1Z"/><path class="cls-33" d="M748.08,922.31c10.91-3,15.3-2,16.8,3.37s-.74,7-11.65,10-23,5.39-24.51,0S737.17,925.34,748.08,922.31Z"/><path class="cls-33" d="M750.18,935.28c13.36-3.7,18.61-2.93,20.1,2.45s-1.29,7.15-14.64,10.85S727.52,955.38,726,950,736.83,939,750.18,935.28Z"/><path class="cls-33" d="M751.78,946.73c12.67-3.51,17.69-2.67,19.18,2.71s-1.14,7.11-13.81,10.62-26.7,6.41-28.19,1S739.11,950.25,751.78,946.73Z"/><path class="cls-33" d="M755.1,957.54c9.1-2.52,12.78-1.64,14,3s-.58,6-9.68,8.48-19.22,4.48-20.5-.11S746,960.07,755.1,957.54Z"/><path class="cls-34" d="M738.85,939.2l22.26-5.12c.7-.16.41-1.24-.3-1.08l-22.26,5.12c-.7.17-.4,1.25.3,1.08Z"/><path class="cls-34" d="M735.56,953.31a215.32,215.32,0,0,0,31.23-7.87c.68-.22.39-1.3-.29-1.07a216.72,216.72,0,0,1-31.24,7.86c-.71.12-.41,1.2.3,1.08Z"/><path class="cls-34" d="M741.12,964.27a155.86,155.86,0,0,0,25.22-6.75c.67-.24.38-1.32-.3-1.08a155.86,155.86,0,0,1-25.22,6.75c-.71.13-.41,1.2.3,1.08Z"/><path class="cls-19" d="M563.35,755.13c5.8-7.63,7-18.3,2.12-26.74a24.29,24.29,0,0,0-24.36-11.63c-15.31,2.32-31.05,19.45-47,9.68-.54-.33-.05-1.18.49-.84,10.77,6.59,22.8-.2,32.75-5,7.86-3.82,16.26-6.72,24.94-3.87,16.37,5.38,22.25,25.3,11.9,38.93-.38.49-1.23,0-.85-.5Z"/><path class="cls-35" d="M506.25,760s-7.35-3.68-14.38-.45a19.41,19.41,0,0,1,10.53,3C507.36,765.83,506.25,760,506.25,760Z"/><path class="cls-12" d="M475.07,830.48c.9.23,5.55,1.44,11.84,3.41C486.6,830.58,476.48,830.66,475.07,830.48Z"/><path class="cls-12" d="M487.76,863.64c2.63,7.52,30.09,13,41,13.92,7.22.6,18.29,2,24.34-2.38,5.12-3.7,19-34.75,15.22-50.48a97,97,0,0,1-.84-24.6c1.83-14.45-8.84-38-8.84-38-42.31-28.38-77.67,13.92-80.34,30S477.13,833.27,487.76,863.64Z"/><path class="cls-21" d="M504.42,795.82c-2.09.39-2.35-1.3-.58-2.48,4.2-2.81,9.44-5.64,22.35-2.34,12.14,3.11,11.34,9.91,4.41,9C524.54,799.28,518.32,793.24,504.42,795.82Z"/><path class="cls-21" d="M567,796.28c1.12.18,1.19-3.53.25-4.47-2.23-2.23-6-3.85-12-.26-6.59,3.93-5.85,8.2-2.1,6.82C556.39,797.15,559.53,795.08,567,796.28Z"/><path class="cls-21" d="M510.74,807.3a5.05,5.05,0,1,0,10.1-.24,5.11,5.11,0,0,0-.74-2.5c-.43-.7-5.43-.88-7.19-.75-1,.72-1.79,1.06-2,2.29A4.8,4.8,0,0,0,510.74,807.3Z"/><path class="cls-21" d="M505.38,808.19c-.74,2.11,4.12-5.3,15.82-3.31a20.32,20.32,0,0,1,8.12,3.86c.84.63.88-.38.11-1.09-2.87-2.67-5.67-4.54-10.15-4.88C511.58,802.19,505.68,807.33,505.38,808.19Z"/><path class="cls-36" d="M546.05,802.37c-3.51,1.8-5.1,5.68-5,9.5.12,4.24,2.44,8.06,5,11.33,1.71,2.23,5.9,5.64,4.47,8.89-.63,1.43-2.25,2.17-3.57,2.8a27.33,27.33,0,0,1-5.84,2c-.59.13-.87-.78-.27-.91a26.07,26.07,0,0,0,6.51-2.32c1.73-.91,3-2.11,2.15-4.23a11.08,11.08,0,0,0-2-2.9c-2.39-2.88-4.76-5.83-6.18-9.33-2.19-5.39-1.39-12.7,4.27-15.61.55-.27,1.05.53.5.81Z"/><path class="cls-22" d="M547.28,861.64a14.68,14.68,0,0,0-9.64,0c-1.16.4-1.7-1.42-.55-1.82a16.4,16.4,0,0,1,10.65-.06c1.15.38.7,2.23-.46,1.84Z"/><path class="cls-19" d="M454.08,817c6.28,20.44,28.76,30.58,28.76,30.58-2.38-12.77-4-39.28-.91-39.3s11.81,9.32,10.89,4.62-5.73-11.51.16-21.8.34-22.64.34-22.64l.13,0a.32.32,0,0,1,.09,0,26.1,26.1,0,0,0,3.76,1.15h.05a65.28,65.28,0,0,0,13,1.43c4.24.1,8.73,0,13.14-.39,4.73-.38,9.38-1,13.54-1.7a76.31,76.31,0,0,0,10.22-2.43,31.78,31.78,0,0,1,4.52-1.14,18.35,18.35,0,0,1,2.85-.28c6-.1,6.79,3.49,6.79,3.49,8.75-12.49,6.79-20.72,4.42-28.38-4.24-13.68-16.42-24.23-34.41-19.05-17.63,5.08-14.4,5.65-31.68,4.58-40.06-2.5-38.76,24.72-38.76,24.72C441.69,762.25,447.81,796.6,454.08,817Z"/><path class="cls-12" d="M491.09,816.64s-9.93-14.49-18.75-7.61.67,19,4.25,23.62c3.82,5,6,5,12.46,3.17S491.09,816.64,491.09,816.64Z"/><path class="cls-22" d="M489.46,834.59c-2,3.77-7.09,3.64-10.24,1.4a19.54,19.54,0,0,1-4.71-5.41,48.43,48.43,0,0,1-4.2-7.55c-1.87-4.44-2.83-10.54,1.4-14s9.87-2,13.37,1.62c.46.47-.25,1.21-.71.73-3.25-3.34-8.74-4.72-12.45-1.19s-2.07,9.56-.15,13.6a37.59,37.59,0,0,0,6.54,10c2.63,2.66,8,4.38,10.25.23a.52.52,0,0,1,.9.5Z"/><path class="cls-22" d="M478.46,811.8a7.6,7.6,0,0,1,3.93,2.83c1.05,1.67.71,3,.25,4.73-.87,3.3,2.47,3.88,4.16,5.92a3.39,3.39,0,0,1,.53,3.94.51.51,0,0,1-.89-.49c1.73-3.13-4.41-4.77-5-7.6-.26-1.18.37-2,.63-3.1.62-2.63-1.68-4.42-3.84-5.24-.6-.22-.37-1.22.25-1Z"/><path class="cls-37" d="M524.44,841.39c.14,1.47,1.82,4,4.4,6.25,2.94,2.56,7.06,4.72,11.42,4.43a15.22,15.22,0,0,0,7.21-2.36c3.23-2.05,5.23-5,5.54-7.34a4.09,4.09,0,0,0,0-1,.43.43,0,0,0-.09-.23c-.19-.31-.74-.39-1.22-.47-1.87-.29-5.26.68-10.76,1-3.66.23-9.85-1-13.55-1.21-.5,0-1,0-1.41,0-.9,0-1.53.16-1.58.54A1.25,1.25,0,0,0,524.44,841.39Z"/><path class="cls-9" d="M526,840.43c12.49,8.84,22.89,3.64,26.93.85a1,1,0,0,0,0-.18c-.19-.31-.74-.39-1.22-.47-1.87-.29-5.27.68-10.76,1-3.66.23-9.85-1-13.55-1.21C526.92,840.42,526.43,840.41,526,840.43Z"/><path class="cls-10" d="M528.84,847.64c2.94,2.56,7.06,4.72,11.42,4.43a15.22,15.22,0,0,0,7.21-2.36c-2.67-1.31-8.64-3.92-13.3-3.45A13.88,13.88,0,0,0,528.84,847.64Z"/><path class="cls-19" d="M533.64,721.53c9.36-2.19,19.5-1.13,27,5.37a20.72,20.72,0,0,1,5.79,23.82c-.24.58-1.09.08-.84-.5,3.66-8.65.36-18.19-7-23.69-7.13-5.33-16.2-6-24.66-4-.62.14-.88-.8-.26-1Z"/><path class="cls-19" d="M460.27,737.67a23.36,23.36,0,0,0,3.55,16.73c.35.53-.5,1-.84.49a24.33,24.33,0,0,1-3.65-17.48c.1-.62,1-.36.94.26Z"/><path class="cls-19" d="M463.53,750.1a46.86,46.86,0,0,0-13.15,6.53c-.51.37-1-.48-.49-.84a47.94,47.94,0,0,1,13.38-6.64c.6-.19.86.76.26,1Z"/><path class="cls-38" d="M532.7,768.88c9.08-2.11,10.09-14.8,8.47-22.3-2-9.35-11-11.43-19.31-11.7-.63,0-.63-1,0-1,9.47.31,18.84,3.18,20.49,13.74,1.22,7.83-.08,20-9.39,22.18-.61.15-.87-.8-.26-.94Z"/><path class="cls-38" d="M521.51,746.24c4.67,2.31,9,5,11.29,9.93a17.1,17.1,0,0,1,.46,13c-.21.59-1.16.34-1-.26a16.15,16.15,0,0,0-.86-13.25c-2.25-4.17-6.33-6.53-10.44-8.57-.56-.28-.07-1.12.5-.84Z"/><path class="cls-38" d="M492.68,768a86,86,0,0,1-19.74-13.28c-.47-.42.22-1.11.69-.69a85.28,85.28,0,0,0,19.55,13.12c.56.28.07,1.12-.5.85Z"/><path class="cls-21" d="M551.27,808.78c1.37-1.64,4.07-4.45,7.21-4.65a5.17,5.17,0,0,1,2.07.27c1.22.41,2.8,1.86,4.45,2.89.6.38-7-10.35-13.17-.48q-.32.5-.63,1.08c-.22.43-.45.89-.67,1.38C550,810.46,550.32,809.9,551.27,808.78Z"/><path class="cls-21" d="M551.2,807.89a5,5,0,0,0,.07.89,3.2,3.2,0,0,0,1.22,2.13,4.9,4.9,0,0,0,4,.65,5.35,5.35,0,0,0,2.88-2,4.16,4.16,0,0,0,0-4.46c-.3-.37-.59-.74-.81-1l-.32-.4-3.46.67-2,1.29-.77,1-.12.11Q551.52,807.31,551.2,807.89Z"/><polygon class="cls-9" points="796.77 733.87 750.87 738.1 705.86 742.23 722.16 636.56 723.64 626.97 734.34 557.63 761.03 632.99 796.77 733.87"/><path class="cls-4" d="M750.87,738.1l-45,4.13,16.3-105.67,1.48-9.59h17s-.32,2.82-.68,7.7C738.54,653.08,736.79,700.9,750.87,738.1Z"/><polygon class="cls-10" points="898.76 1818.55 807.86 1826.92 705.86 742.24 796.76 733.87 898.76 1818.55"/><polygon class="cls-11" points="875.14 1820.73 831.47 1824.74 729.47 740.06 773.14 736.04 875.14 1820.73"/><polygon class="cls-8" points="761.03 632.99 722.16 636.56 731.75 574.44 740.01 573.65 761.03 632.99"/><path class="cls-12" d="M706.7,973.27s-6.54-24.42-3.16-31.35,13.32-20.1,20.83-21.29c10.49-1.67,26.65-5.21,25.46-.57-1.06,4.14-9.69,14-17.84,13.52-3.25-.17-2.76,8.83-4.58,11.27-9,12-10.63,26.39-10.63,26.39Z"/><g class="cls-3"><path class="cls-31" d="M550.7,1268.48c36.43,4.42,68.09-13.23,68.09-13.23-1.42-3.75-3-7.89-4.57-12.28C606.34,1257.82,550.7,1268.48,550.7,1268.48Z"/></g><path class="cls-31" d="M542.8,1248.18s-42.92,8.77-65.66-12c0,0,22.12,11.61,39.4,10.38S545.2,1245,542.8,1248.18Z"/><g class="cls-3"><path class="cls-31" d="M535.28,1232.72s-20.43,9.21-30.22,7.09c0,0,20.09-4.32,26.11-11.11S539.71,1230.89,535.28,1232.72Z"/></g><path class="cls-31" d="M407.74,1157.74a58.88,58.88,0,0,0,16.55,10.44c2.4,1.07,4.84,2,7.28,3,3.42,1.38,6.3,2.77,6.08,7.19-.07,1.37-1.91,3.53-2.52,4.74a60.57,60.57,0,0,0-5.42,17.64c-.63,3.9-1.13,8-3,11.58-3,5.5-10,9.64-15.42,4.6-.79-.73-2,.45-1.18,1.18,4.26,3.93,10.34,3.55,14.6-.3,7.19-6.5,5.94-17.69,8.67-26.16,1.5-4.64,5.5-9.35,6.51-14a4.61,4.61,0,0,0-1.49-5.06c-3.08-3-9.48-4.18-13.24-5.84a57.44,57.44,0,0,1-16.22-10.19c-.78-.73-2,.45-1.17,1.18Z"/><path class="cls-31" d="M394.39,1058.21c10.6-10.94,20-23,36.17-24.81,1.05-.12,1.06-1.78,0-1.66-16.74,1.93-26.26,13.86-37.34,25.29-.75.77.43,2,1.17,1.18Z"/><path class="cls-31" d="M611.42,1015.22a675.74,675.74,0,0,1-10.81,110.85c-.19,1,1.41,1.5,1.61.45a680.15,680.15,0,0,0,10.87-111.3.84.84,0,0,0-1.67,0Z"/><path class="cls-31" d="M666.61,1047.6c-21.43,20.16-32.45,48.23-27.12,77.53.19,1,1.79.6,1.6-.44-5.21-28.7,5.74-56.2,26.7-75.92.78-.73-.4-1.91-1.18-1.17Z"/><path class="cls-31" d="M360.54,1109.31a60.8,60.8,0,0,0-40.44-7.13c-1.06.18-.61,1.78.44,1.61a58.91,58.91,0,0,1,39.16,7,.83.83,0,0,0,.84-1.44Z"/><path class="cls-31" d="M611.85,1038.31a151.5,151.5,0,0,0,9.52-18.76c.41-1-1-1.82-1.44-.84a151.5,151.5,0,0,1-9.52,18.76.83.83,0,0,0,1.44.84Z"/><path class="cls-17" d="M1627.23,515.65h-502a10.58,10.58,0,0,1-10.55-10.55h0a10.59,10.59,0,0,1,10.55-10.56h502a10.59,10.59,0,0,1,10.56,10.56h0A10.59,10.59,0,0,1,1627.23,515.65Z"/><path class="cls-17" d="M1666,567.5H1086.52A10.59,10.59,0,0,1,1076,556.94h0a10.59,10.59,0,0,1,10.56-10.56H1666a10.59,10.59,0,0,1,10.55,10.56h0A10.59,10.59,0,0,1,1666,567.5Z"/><path class="cls-4" d="M1422.2,745.83H939.08a10.61,10.61,0,0,1-10.58-10.58h0a10.61,10.61,0,0,1,10.58-10.58H1422.2a10.62,10.62,0,0,1,10.59,10.58h0A10.62,10.62,0,0,1,1422.2,745.83Z"/><path class="cls-4" d="M1815.16,745.83H1480a10.61,10.61,0,0,1-10.58-10.58h0A10.61,10.61,0,0,1,1480,724.67h335.19a10.62,10.62,0,0,1,10.59,10.58h0A10.62,10.62,0,0,1,1815.16,745.83Z"/><path class="cls-4" d="M1279,671.1H939.08a10.62,10.62,0,0,1-10.58-10.59h0a10.61,10.61,0,0,1,10.58-10.58H1279a10.61,10.61,0,0,1,10.58,10.58h0A10.62,10.62,0,0,1,1279,671.1Z"/><path class="cls-4" d="M1602.19,671.1H1339.37a10.62,10.62,0,0,1-10.58-10.59h0a10.61,10.61,0,0,1,10.58-10.58h262.82a10.61,10.61,0,0,1,10.58,10.58h0A10.62,10.62,0,0,1,1602.19,671.1Z"/><path class="cls-4" d="M1815.16,671.1H1653.54A10.62,10.62,0,0,1,1643,660.51h0a10.61,10.61,0,0,1,10.58-10.58h161.62a10.62,10.62,0,0,1,10.59,10.58h0A10.63,10.63,0,0,1,1815.16,671.1Z"/><path class="cls-4" d="M1279,820.56H939.08A10.61,10.61,0,0,1,928.5,810h0a10.61,10.61,0,0,1,10.58-10.58H1279A10.61,10.61,0,0,1,1289.58,810h0A10.61,10.61,0,0,1,1279,820.56Z"/><path class="cls-4" d="M1602.19,820.56H1339.37A10.61,10.61,0,0,1,1328.79,810h0a10.61,10.61,0,0,1,10.58-10.58h262.82A10.61,10.61,0,0,1,1612.77,810h0A10.61,10.61,0,0,1,1602.19,820.56Z"/><path class="cls-4" d="M1815.16,820.56H1653.54A10.61,10.61,0,0,1,1643,810h0a10.61,10.61,0,0,1,10.58-10.58h161.62A10.62,10.62,0,0,1,1825.75,810h0A10.62,10.62,0,0,1,1815.16,820.56Z"/><rect class="cls-4" x="928.5" y="951.06" width="405.29" height="21.16" rx="10.4"/><path class="cls-4" d="M1279,897.49H939.08a10.61,10.61,0,0,1-10.58-10.58h0a10.62,10.62,0,0,1,10.58-10.59H1279a10.62,10.62,0,0,1,10.58,10.59h0A10.61,10.61,0,0,1,1279,897.49Z"/><path class="cls-4" d="M1602.19,897.49H1339.37a10.61,10.61,0,0,1-10.58-10.58h0a10.62,10.62,0,0,1,10.58-10.59h262.82a10.62,10.62,0,0,1,10.58,10.59h0A10.61,10.61,0,0,1,1602.19,897.49Z"/><path class="cls-4" d="M1815.16,897.49H1653.54A10.61,10.61,0,0,1,1643,886.91h0a10.62,10.62,0,0,1,10.58-10.59h161.62a10.63,10.63,0,0,1,10.59,10.59h0A10.62,10.62,0,0,1,1815.16,897.49Z"/><path class="cls-4" d="M940.22,1126.48H1213a8.22,8.22,0,0,0,8.2-8.2h0a8.22,8.22,0,0,0-8.2-8.19H940.22a8.22,8.22,0,0,0-8.2,8.19h0A8.22,8.22,0,0,0,940.22,1126.48Z"/><path class="cls-4" d="M940.22,1242.62H1213a8.22,8.22,0,0,0,8.2-8.2h0a8.22,8.22,0,0,0-8.2-8.2H940.22a8.22,8.22,0,0,0-8.2,8.2h0A8.22,8.22,0,0,0,940.22,1242.62Z"/><path class="cls-4" d="M940.22,1068.58h132a8.22,8.22,0,0,0,8.2-8.2h0a8.22,8.22,0,0,0-8.2-8.2h-132a8.22,8.22,0,0,0-8.2,8.2h0A8.22,8.22,0,0,0,940.22,1068.58Z"/><path class="cls-4" d="M940.22,1184.39h132a8.22,8.22,0,0,0,8.2-8.2h0a8.22,8.22,0,0,0-8.2-8.2h-132a8.22,8.22,0,0,0-8.2,8.2h0A8.22,8.22,0,0,0,940.22,1184.39Z"/><path class="cls-4" d="M940.22,1299.62h132a8.22,8.22,0,0,0,8.2-8.2h0a8.22,8.22,0,0,0-8.2-8.2h-132a8.22,8.22,0,0,0-8.2,8.2h0A8.22,8.22,0,0,0,940.22,1299.62Z"/><rect class="cls-4" x="1168.93" y="1483.08" width="356.46" height="165.33"/><path class="cls-39" d="M1574,1282.47c-17.26,34.31-33.58,69.12-50.82,106.57-13.42,29.11-25.69,59.53-40.44,94-46.43,108.66-86.25,178.65-89.43,185-.39.7-7.39,13.46-9,16.26a12.64,12.64,0,0,1,2.54.09c27.35,3.7,57,97.06,14.52,133.12h0a163.54,163.54,0,0,1-13.85,9.3c-168.43-.22-206.85-.28-393.29-.49,14.5-62.94,34.07-194.62,48.27-240,34.61-110.58,39.5-176.45,76.41-188.63,17.24-5.69,34.11-10,50.39,10.42,4.14,5.17,19.7-18.77,47.69-15.91,49,5,39,35.52,46.29,46.85a3,3,0,0,0,1.7,1.42h0c7.46,1.88,23-38.85,52.58-39.78,60-1.87,49.37,50.41,54.55,59.28,9.55,16.61,103-172.95,160.62-247.42C1562.74,1173.78,1616.1,1198.68,1574,1282.47Z"/><path class="cls-40" d="M1584.08,1215.7s-7.32,33.76-20.42,39.59-34.78-7.64-35-14.22,19.35-38.1,23.43-39.75S1579.56,1207.68,1584.08,1215.7Z"/><path class="cls-41" d="M1389.64,1676.94a409.35,409.35,0,0,0-35.66,64.24c-.55,1.23-2.37.16-1.82-1.07a409.26,409.26,0,0,1,35.66-64.23c.76-1.12,2.59-.06,1.82,1.06Z"/><path class="cls-39" d="M1586.74,1554.56a374.6,374.6,0,0,0-36.52,44.13c-9,12.89-16.76,26.74-19.56,38.72-7.91,33.92-15.6,48.87-56,100-14.89,18.84-47.47,71.26-62.57,85.19-1.61,1.48-3.21,2.92-4.8,4.3-27.73,0,5,0-193.8-.25-2.57-27.52,8.53-58.59,38.35-81.76,51-39.6,107.94-60.39,139.2-74.13h0l2.63-1.18c19.76-8.84,19.7-11.35,21.84-14.9,8.52-14.58,35.9-49.26,49.36-59.51a262.21,262.21,0,0,1,33.24-40.29c10.78-10.49,25.31-22.05,39.9-25.49C1574.19,1520.78,1598,1542.35,1586.74,1554.56Z"/><path class="cls-41" d="M1406.43,1643.89a774.11,774.11,0,0,0-44.07,102c-.4,1.14-2.21.65-1.81-.49a777.79,777.79,0,0,1,44.26-102.49c.55-1.07,2.17-.13,1.62,1Z"/><path class="cls-41" d="M1466.62,1594a43.59,43.59,0,0,1,16,3.62c1.11.47.16,2.09-.94,1.62a41.25,41.25,0,0,0-15.08-3.36c-1.2,0-1.21-1.92,0-1.88Z"/><path class="cls-41" d="M1468.78,1595.31a38.75,38.75,0,0,1,6,6c.75.93-.57,2.27-1.33,1.33a38.32,38.32,0,0,0-6-6c-.94-.75.39-2.07,1.33-1.33Z"/><path class="cls-41" d="M1406.34,1663.7a22.48,22.48,0,0,1,11-4c1.2-.11,1.2,1.77,0,1.88a20.71,20.71,0,0,0-10,3.71c-1,.69-1.93-.93-.94-1.62Z"/><path class="cls-41" d="M1382.3,1454.6l-19.12,19.91c-.84.88-2.17-.45-1.33-1.32l19.12-19.92c.84-.87,2.17.46,1.33,1.33Z"/><path class="cls-41" d="M1272,1438.39a32.74,32.74,0,0,1-15.3,6.61c-1.18.18-1.69-1.62-.5-1.81a31,31,0,0,0,14.47-6.13c.94-.73,2.28.59,1.33,1.33Z"/><path class="cls-41" d="M1176.87,1405.32a35.49,35.49,0,0,1-18.18,10.72c-1.18.28-1.68-1.52-.5-1.81a33.72,33.72,0,0,0,17.35-10.24c.81-.89,2.14.44,1.33,1.33Z"/><path class="cls-40" d="M1541.18,1584.47c-.29,6.2,4.8,11.17,9,14.21,24.5-22.28,37.35-42.15,36.49-44.07l0,0s-6.53-12.15-15-6.14S1541.68,1574,1541.18,1584.47Z"/><path class="cls-41" d="M1494,1382.56a62.25,62.25,0,0,0-28.13-12.21c-1.19-.19-.68-2,.5-1.81a63.19,63.19,0,0,1,28.58,12.4c.94.72,0,2.36-1,1.62Z"/><path class="cls-41" d="M1480.86,1386.26l-8.95-3.15c-1.14-.4-.65-2.21.5-1.81l8.95,3.15c1.13.39.65,2.21-.5,1.81Z"/><g class="cls-25"><path class="cls-42" d="M1414.3,1656.81c14.52,4,70.3-52.37,91.52-86.55s69.68-38.6,69.68-38.6c-9.17-4.14-22.25-5.89-37.49-2.24-36,8.62-73.14,65.76-73.14,65.76C1450.86,1605.82,1421.89,1642.82,1414.3,1656.81Z"/></g></svg>