<?xml version="1.0" encoding="utf-8"?>
<!-- Generator: Adobe Illustrator 24.0.0, SVG Export Plug-In . SVG Version: 6.00 Build 0)  -->
<svg version="1.1" id="Layer_1" xmlns="http://www.w3.org/2000/svg" xmlns:xlink="http://www.w3.org/1999/xlink" x="0px" y="0px"
	 viewBox="0 0 1425.1 344.9" style="enable-background:new 0 0 1425.1 344.9;" xml:space="preserve">
<style type="text/css">
	.st0{fill:#4572B8;}
</style>
<g>
	<path class="st0" d="M138.4,122.5v37.7h60.8v35.1h-60.8v40.9h68.8v36.4H93V86.1h114.2v36.4H138.4z"/>
	<path class="st0" d="M350.9,160.5v37.7H234v-37.7H350.9z"/>
	<path class="st0" d="M421.5,267.8c-10.8-4.4-19.4-11-25.9-19.7c-6.5-8.7-9.9-19.1-10.2-31.3h48.3c0.7,6.9,3.1,12.2,7.2,15.8
		c4.1,3.6,9.4,5.4,15.9,5.4c6.7,0,12-1.5,15.9-4.6c3.9-3.1,5.8-7.4,5.8-12.9c0-4.6-1.6-8.4-4.6-11.4c-3.1-3-6.9-5.5-11.4-7.4
		c-4.5-1.9-10.9-4.2-19.3-6.6c-12-3.7-21.9-7.4-29.5-11.2c-7.6-3.7-14.2-9.2-19.7-16.5c-5.5-7.3-8.2-16.7-8.2-28.4
		c0-17.4,6.3-30.9,18.9-40.8c12.6-9.8,29-14.7,49.1-14.7c20.5,0,37.1,4.9,49.7,14.7c12.6,9.8,19.3,23.5,20.2,41h-49.1
		c-0.4-6-2.6-10.8-6.6-14.2c-4.1-3.5-9.3-5.2-15.7-5.2c-5.5,0-9.9,1.5-13.3,4.4c-3.4,2.9-5,7.1-5,12.6c0,6,2.8,10.7,8.5,14.1
		c5.7,3.4,14.5,7,26.6,10.9c12,4.1,21.8,8,29.3,11.7c7.5,3.7,14,9.1,19.5,16.2c5.5,7.1,8.2,16.2,8.2,27.4c0,10.6-2.7,20.3-8.1,29
		c-5.4,8.7-13.2,15.6-23.5,20.7c-10.3,5.1-22.4,7.7-36.4,7.7C444.6,274.4,432.3,272.2,421.5,267.8z"/>
	<path class="st0" d="M688.9,94.4c13.9,8,24.7,19.2,32.4,33.7c7.7,14.5,11.6,31.3,11.6,50.5c0,19.1-3.8,35.9-11.4,50.5
		c-7.6,14.5-18.4,25.8-32.3,33.7c-13.9,8-30,12-48.2,12c-18.2,0-34.2-3.7-47.9-11c-13.7-7.3-24.4-18-32-31.9
		c-7.6-13.9-11.4-30.3-11.4-49.3c0-3.5,0.4-9,1.1-16.5h134.9c-0.7-13.3-5.2-23.7-13.5-31.3c-8.3-7.6-18.6-11.4-30.8-11.4
		c-9.4,0-17.6,2.1-24.6,6.4c-7,4.2-11.9,10.1-14.7,17.5h-49.4c3.4-12.7,9.2-24,17.4-33.7c8.2-9.7,18.4-17.4,30.5-22.8
		c12.1-5.5,25.5-8.2,40.2-8.2C658.9,82.4,675,86.4,688.9,94.4z M670.5,223.3c8.4-6.5,13.3-15.4,14.7-26.7h-89
		c0.5,10.8,4.9,19.6,13,26.3c8.1,6.7,18.4,10.1,30.8,10.1C652,233,662.1,229.8,670.5,223.3z"/>
	<path class="st0" d="M927.5,272.6h-45.4l-76-115v115h-45.4V86.1h45.4l76,115.5V86.1h45.4V272.6z"/>
	<path class="st0" d="M1095.2,94.4c13.9,8,24.7,19.2,32.4,33.7c7.7,14.5,11.6,31.3,11.6,50.5c0,19.1-3.8,35.9-11.4,50.5
		c-7.6,14.5-18.4,25.8-32.3,33.7c-13.9,8-30,12-48.2,12c-18.2,0-34.2-3.7-47.9-11c-13.7-7.3-24.4-18-32-31.9
		c-7.6-13.9-11.4-30.3-11.4-49.3c0-3.5,0.4-9,1.1-16.5h134.9c-0.7-13.3-5.2-23.7-13.5-31.3c-8.3-7.6-18.6-11.4-30.8-11.4
		c-9.4,0-17.6,2.1-24.6,6.4c-7,4.2-11.9,10.1-14.7,17.5h-49.4c3.4-12.7,9.2-24,17.4-33.7c8.2-9.7,18.4-17.4,30.5-22.8
		c12.1-5.5,25.5-8.2,40.2-8.2C1065.3,82.4,1081.3,86.4,1095.2,94.4z M1076.9,223.3c8.4-6.5,13.3-15.4,14.7-26.7h-89
		c0.5,10.8,4.9,19.6,13,26.3c8.1,6.7,18.4,10.1,30.8,10.1C1058.4,233,1068.5,229.8,1076.9,223.3z"/>
	<path class="st0" d="M1288.5,97.8c14.7,7.8,26.1,18.7,34.1,32.8c8.1,14.1,12.1,30.3,12.1,48.7c0,18.2-4,34.4-12.1,48.6
		c-8.1,14.2-19.5,25.1-34.3,32.9c-14.8,7.8-31.9,11.7-51.4,11.7h-69.9V86.1h69.9C1256.6,86.1,1273.8,90,1288.5,97.8z M1274.1,219.2
		c9.6-9.4,14.3-22.7,14.3-39.8c0-17.2-4.8-30.5-14.3-40.1c-9.6-9.6-22.9-14.3-40.1-14.3h-21.5v108.4h21.5
		C1251.2,233.3,1264.6,228.6,1274.1,219.2z"/>
</g>
</svg>
